<?xml version="1.0" encoding="UTF-8" standalone="no"?>
<!DOCTYPE svg PUBLIC "-//W3C//DTD SVG 1.1//EN"
 "http://www.w3.org/Graphics/SVG/1.1/DTD/svg11.dtd">
<!-- Generated by graphviz version 2.38.0 (20140413.2041)
 -->
<!-- Title: %3 Pages: 1 -->
<svg width="514pt" height="707pt"
 viewBox="0.00 0.00 514.00 707.00" xmlns="http://www.w3.org/2000/svg" xmlns:xlink="http://www.w3.org/1999/xlink">
<g id="graph0" class="graph" transform="scale(1 1) rotate(0) translate(4 703)">
<title>%3</title>
<polygon fill="white" stroke="none" points="-4,4 -4,-703 510,-703 510,4 -4,4"/>
<!-- Steven -->
<g id="node1" class="node"><title>Steven</title>
<polygon fill="none" stroke="black" points="275,-70.5 221,-70.5 221,-19.5 275,-19.5 275,-70.5"/>
<text text-anchor="middle" x="248" y="-41.3" font-family="Times New Roman,serif" font-size="14.00">Steven</text>
</g>
<!-- Clayton -->
<g id="node2" class="node"><title>Clayton</title>
<polygon fill="none" stroke="black" points="216.5,-699 143.5,-699 143.5,-626 216.5,-626 216.5,-699"/>
<text text-anchor="middle" x="180" y="-658.8" font-family="Times New Roman,serif" font-size="14.00">Clayton</text>
</g>
<!-- Clayton&#45;&#45;Steven -->
<g id="edge23" class="edge"><title>Clayton&#45;&#45;Steven</title>
<path fill="none" stroke="black" stroke-width="2" d="M216.763,-653.211C302.02,-631.585 506,-565.006 506,-423 506,-423 506,-423 506,-293.5 506,-166.568 341.363,-84.4935 275.123,-56.6082"/>
</g>
<!-- Kevin L -->
<g id="node3" class="node"><title>Kevin L</title>
<polygon fill="none" stroke="black" points="300.5,-307 239.5,-307 239.5,-282 300.5,-282 300.5,-307"/>
<text text-anchor="middle" x="270" y="-290.8" font-family="Times New Roman,serif" font-size="14.00">Kevin L</text>
</g>
<!-- Clayton&#45;&#45;Kevin L -->
<g id="edge9" class="edge"><title>Clayton&#45;&#45;Kevin L</title>
<path fill="none" stroke="black" stroke-width="2" d="M188.793,-625.74C208.432,-545.876 255.078,-356.181 267.122,-307.202"/>
</g>
<!-- Dan -->
<g id="node4" class="node"><title>Dan</title>
<polygon fill="none" stroke="black" points="48,-573 0,-573 0,-525 48,-525 48,-573"/>
<text text-anchor="middle" x="24" y="-545.3" font-family="Times New Roman,serif" font-size="14.00">Dan</text>
</g>
<!-- Clayton&#45;&#45;Dan -->
<g id="edge25" class="edge"><title>Clayton&#45;&#45;Dan</title>
<path fill="none" stroke="black" d="M143.425,-635.358C114.067,-614.374 73.6781,-585.507 48.2078,-567.302"/>
</g>
<!-- Jim -->
<g id="node5" class="node"><title>Jim</title>
<polygon fill="none" stroke="black" points="152,-472 52,-472 52,-372 152,-372 152,-472"/>
<text text-anchor="middle" x="102" y="-418.3" font-family="Times New Roman,serif" font-size="14.00">Jim</text>
</g>
<!-- Clayton&#45;&#45;Jim -->
<g id="edge11" class="edge"><title>Clayton&#45;&#45;Jim</title>
<path fill="none" stroke="black" stroke-width="4" d="M168.323,-625.794C154.978,-584.99 133.057,-517.961 118.097,-472.221"/>
</g>
<!-- Joe -->
<g id="node6" class="node"><title>Joe</title>
<polygon fill="none" stroke="black" points="221.5,-336 138.5,-336 138.5,-253 221.5,-253 221.5,-336"/>
<text text-anchor="middle" x="180" y="-290.8" font-family="Times New Roman,serif" font-size="14.00">Joe</text>
</g>
<!-- Clayton&#45;&#45;Joe -->
<g id="edge12" class="edge"><title>Clayton&#45;&#45;Joe</title>
<path fill="none" stroke="black" stroke-width="11" d="M180,-625.74C180,-557.298 180,-408.194 180,-336.118"/>
</g>
<!-- Jason K -->
<g id="node9" class="node"><title>Jason K</title>
<polygon fill="none" stroke="black" points="366,-590 284,-590 284,-508 366,-508 366,-590"/>
<text text-anchor="middle" x="325" y="-545.3" font-family="Times New Roman,serif" font-size="14.00">Jason K</text>
</g>
<!-- Clayton&#45;&#45;Jason K -->
<g id="edge21" class="edge"><title>Clayton&#45;&#45;Jason K</title>
<path fill="none" stroke="black" d="M216.59,-633.364C237.06,-617.623 262.641,-597.952 283.812,-581.672"/>
</g>
<!-- Jason T -->
<g id="node10" class="node"><title>Jason T</title>
<polygon fill="none" stroke="black" points="363.5,-460.5 286.5,-460.5 286.5,-383.5 363.5,-383.5 363.5,-460.5"/>
<text text-anchor="middle" x="325" y="-418.3" font-family="Times New Roman,serif" font-size="14.00">Jason T</text>
</g>
<!-- Clayton&#45;&#45;Jason T -->
<g id="edge20" class="edge"><title>Clayton&#45;&#45;Jason T</title>
<path fill="none" stroke="black" stroke-width="3" d="M207.505,-625.834C215.737,-614.603 224.548,-601.995 232,-590 253.715,-555.045 255.006,-543.968 275,-508 283.651,-492.437 293.525,-475.491 302.201,-460.854"/>
</g>
<!-- Dan&#45;&#45;Jim -->
<g id="edge5" class="edge"><title>Dan&#45;&#45;Jim</title>
<path fill="none" stroke="black" stroke-width="3" d="M38.4884,-524.781C47.6962,-510.025 59.9697,-490.356 71.2716,-472.244"/>
</g>
<!-- Ricky -->
<g id="node11" class="node"><title>Ricky</title>
<polygon fill="none" stroke="black" points="107,-90 17,-90 17,-0 107,-0 107,-90"/>
<text text-anchor="middle" x="62" y="-41.3" font-family="Times New Roman,serif" font-size="14.00">Ricky</text>
</g>
<!-- Dan&#45;&#45;Ricky -->
<g id="edge3" class="edge"><title>Dan&#45;&#45;Ricky</title>
<path fill="none" stroke="black" stroke-width="7" d="M25.7566,-524.794C31.6609,-446.795 50.8577,-193.196 58.6586,-90.1422"/>
</g>
<!-- Jim&#45;&#45;Joe -->
<g id="edge6" class="edge"><title>Jim&#45;&#45;Joe</title>
<path fill="none" stroke="black" stroke-width="2" d="M132.604,-371.759C139.945,-359.948 147.702,-347.466 154.768,-336.097"/>
</g>
<!-- Kevin K -->
<g id="node8" class="node"><title>Kevin K</title>
<polygon fill="none" stroke="black" points="219.5,-217 128.5,-217 128.5,-126 219.5,-126 219.5,-217"/>
<text text-anchor="middle" x="174" y="-167.8" font-family="Times New Roman,serif" font-size="14.00">Kevin K</text>
</g>
<!-- Jim&#45;&#45;Kevin K -->
<g id="edge4" class="edge"><title>Jim&#45;&#45;Kevin K</title>
<path fill="none" stroke="black" stroke-width="16" d="M105.353,-371.737C108.766,-337.649 115.566,-291.646 129,-253 133.206,-240.901 139.177,-228.503 145.4,-217.174"/>
</g>
<!-- Jim&#45;&#45;Ricky -->
<g id="edge2" class="edge"><title>Jim&#45;&#45;Ricky</title>
<path fill="none" stroke="black" stroke-width="14" d="M96.2884,-371.968C91.5203,-330.658 84.6205,-269.986 79,-217 74.4369,-173.982 69.589,-124.836 66.2429,-90.3045"/>
</g>
<!-- Joe&#45;&#45;Steven -->
<g id="edge17" class="edge"><title>Joe&#45;&#45;Steven</title>
<path fill="none" stroke="black" stroke-width="6" d="M210.216,-252.728C217.115,-241.633 223.68,-229.276 228,-217 245.563,-167.095 248.401,-104.454 248.479,-70.5452"/>
</g>
<!-- Joe&#45;&#45;Kevin K -->
<g id="edge14" class="edge"><title>Joe&#45;&#45;Kevin K</title>
<path fill="none" stroke="black" stroke-width="3" d="M177.985,-252.872C177.42,-241.475 176.803,-229.02 176.226,-217.391"/>
</g>
<!-- Joe&#45;&#45;Ricky -->
<g id="edge10" class="edge"><title>Joe&#45;&#45;Ricky</title>
<path fill="none" stroke="black" d="M143.296,-252.885C134.505,-241.788 125.728,-229.39 119,-217 96.9743,-176.436 81.4072,-125.848 72.1682,-90.2537"/>
</g>
<!-- Jon -->
<g id="node7" class="node"><title>Jon</title>
<polygon fill="none" stroke="black" points="393,-310 357,-310 357,-279 393,-279 393,-310"/>
<text text-anchor="middle" x="375" y="-290.8" font-family="Times New Roman,serif" font-size="14.00">Jon</text>
</g>
<!-- Kevin K&#45;&#45;Steven -->
<g id="edge15" class="edge"><title>Kevin K&#45;&#45;Steven</title>
<path fill="none" stroke="black" d="M200.507,-125.904C211.538,-107.345 223.926,-86.5024 233.284,-70.7589"/>
</g>
<!-- Kevin K&#45;&#45;Ricky -->
<g id="edge1" class="edge"><title>Kevin K&#45;&#45;Ricky</title>
<path fill="none" stroke="black" stroke-width="10" d="M133.882,-125.904C123.462,-114.322 112.243,-101.851 101.838,-90.2843"/>
</g>
<!-- Jason K&#45;&#45;Steven -->
<g id="edge8" class="edge"><title>Jason K&#45;&#45;Steven</title>
<path fill="none" stroke="black" stroke-width="4" d="M366.24,-527.902C387.737,-515.082 412.162,-496.292 425,-472 470.502,-385.901 466.608,-344.026 432,-253 400.388,-169.854 318.374,-98.7777 275.314,-65.7484"/>
</g>
<!-- Jason K&#45;&#45;Joe -->
<g id="edge18" class="edge"><title>Jason K&#45;&#45;Joe</title>
<path fill="none" stroke="black" stroke-width="3" d="M298.881,-507.656C291.651,-496.218 283.898,-483.694 277,-472 249.91,-426.073 220.674,-372.23 201.461,-336.201"/>
</g>
<!-- Jason K&#45;&#45;Jon -->
<g id="edge24" class="edge"><title>Jason K&#45;&#45;Jon</title>
<path fill="none" stroke="black" d="M355.415,-507.714C362.159,-496.688 368.374,-484.355 372,-472 388.999,-414.068 381.612,-340.778 377.304,-310.072"/>
</g>
<!-- Jason K&#45;&#45;Kevin K -->
<g id="edge26" class="edge"><title>Jason K&#45;&#45;Kevin K</title>
<path fill="none" stroke="black" stroke-width="2" d="M366.291,-510.81C376.432,-499.403 386.069,-486.107 392,-472 429.761,-382.18 458.271,-332.543 402,-253 360.786,-194.741 273.766,-178.359 219.951,-173.926"/>
</g>
<!-- Jason K&#45;&#45;Jason T -->
<g id="edge7" class="edge"><title>Jason K&#45;&#45;Jason T</title>
<path fill="none" stroke="black" stroke-width="15" d="M325,-507.761C325,-492.631 325,-475.498 325,-460.615"/>
</g>
<!-- Jason T&#45;&#45;Steven -->
<g id="edge13" class="edge"><title>Jason T&#45;&#45;Steven</title>
<path fill="none" stroke="black" d="M323.478,-383.341C321.607,-349.098 317.555,-297.301 309,-253 296.036,-185.866 270.555,-109.25 256.992,-70.7901"/>
</g>
<!-- Jason T&#45;&#45;Kevin L -->
<g id="edge22" class="edge"><title>Jason T&#45;&#45;Kevin L</title>
<path fill="none" stroke="black" d="M308.498,-383.346C297.107,-357.354 282.702,-324.483 275.153,-307.257"/>
</g>
<!-- Jason T&#45;&#45;Joe -->
<g id="edge19" class="edge"><title>Jason T&#45;&#45;Joe</title>
<path fill="none" stroke="black" stroke-width="2" d="M286.224,-385.494C281.13,-380.924 275.958,-376.331 271,-372 254.989,-358.015 237.131,-342.9 221.504,-329.827"/>
</g>
<!-- Jason T&#45;&#45;Jon -->
<g id="edge16" class="edge"><title>Jason T&#45;&#45;Jon</title>
<path fill="none" stroke="black" stroke-width="2" d="M340.002,-383.346C349.782,-358.798 362.006,-328.114 369.116,-310.269"/>
</g>
</g>
</svg>
