<?xml version="1.0" encoding="UTF-8" standalone="no"?>
<!DOCTYPE svg PUBLIC "-//W3C//DTD SVG 1.1//EN"
 "http://www.w3.org/Graphics/SVG/1.1/DTD/svg11.dtd">
<!-- Generated by graphviz version 2.40.1 (20161225.0304)
 -->
<!-- Title: %3 Pages: 1 -->
<svg width="703pt" height="823pt"
 viewBox="0.00 0.00 702.85 823.00" xmlns="http://www.w3.org/2000/svg" xmlns:xlink="http://www.w3.org/1999/xlink">
<g id="graph0" class="graph" transform="scale(1 1) rotate(0) translate(4 819)">
<title>%3</title>
<polygon fill="#ffffff" stroke="transparent" points="-4,4 -4,-819 698.8482,-819 698.8482,4 -4,4"/>
<!-- Joe -->
<g id="node1" class="node">
<title>Joe</title>
<polygon fill="none" stroke="#000000" points="435.3482,-401 339.3482,-401 339.3482,-305 435.3482,-305 435.3482,-401"/>
<text text-anchor="middle" x="387.3482" y="-348.8" font-family="Times,serif" font-size="14.00" fill="#000000">Joe</text>
</g>
<!-- Kevin K -->
<g id="node4" class="node">
<title>Kevin K</title>
<polygon fill="none" stroke="#000000" points="596.8482,-269 481.8482,-269 481.8482,-154 596.8482,-154 596.8482,-269"/>
<text text-anchor="middle" x="539.3482" y="-207.3" font-family="Times,serif" font-size="14.00" fill="#000000">Kevin K</text>
</g>
<!-- Joe&#45;&#45;Kevin K -->
<g id="edge14" class="edge">
<title>Joe&#45;&#45;Kevin K</title>
<path fill="none" stroke="#000000" stroke-width="3" d="M435.4419,-308.2285C450.1407,-294.5451 466.4567,-279.3562 481.7209,-265.1464"/>
</g>
<!-- Steven -->
<g id="node6" class="node">
<title>Steven</title>
<polygon fill="none" stroke="#000000" points="416.8482,-88.5 357.8482,-88.5 357.8482,-29.5 416.8482,-29.5 416.8482,-88.5"/>
<text text-anchor="middle" x="387.3482" y="-54.8" font-family="Times,serif" font-size="14.00" fill="#000000">Steven</text>
</g>
<!-- Joe&#45;&#45;Steven -->
<g id="edge17" class="edge">
<title>Joe&#45;&#45;Steven</title>
<path fill="none" stroke="#000000" stroke-width="8" d="M387.3482,-304.7811C387.3482,-243.5291 387.3482,-139.6896 387.3482,-88.8466"/>
</g>
<!-- Ricky -->
<g id="node9" class="node">
<title>Ricky</title>
<polygon fill="none" stroke="#000000" points="684.3482,-118 566.3482,-118 566.3482,0 684.3482,0 684.3482,-118"/>
<text text-anchor="middle" x="625.3482" y="-54.8" font-family="Times,serif" font-size="14.00" fill="#000000">Ricky</text>
</g>
<!-- Joe&#45;&#45;Ricky -->
<g id="edge10" class="edge">
<title>Joe&#45;&#45;Ricky</title>
<path fill="none" stroke="#000000" stroke-width="2" d="M399.309,-304.7534C411.966,-261.4485 435.4422,-198.0956 473.3482,-154 498.604,-124.6201 535.2449,-101.3478 566.2237,-85.1913"/>
</g>
<!-- Jim -->
<g id="node2" class="node">
<title>Jim</title>
<polygon fill="none" stroke="#000000" points="596.8482,-552 481.8482,-552 481.8482,-437 596.8482,-437 596.8482,-552"/>
<text text-anchor="middle" x="539.3482" y="-490.3" font-family="Times,serif" font-size="14.00" fill="#000000">Jim</text>
</g>
<!-- Jim&#45;&#45;Joe -->
<g id="edge6" class="edge">
<title>Jim&#45;&#45;Joe</title>
<path fill="none" stroke="#000000" stroke-width="2" d="M481.4499,-440.6013C466.3485,-426.543 450.2346,-411.5423 435.6867,-397.9993"/>
</g>
<!-- Jim&#45;&#45;Kevin K -->
<g id="edge4" class="edge">
<title>Jim&#45;&#45;Kevin K</title>
<path fill="none" stroke="#000000" stroke-width="19" d="M539.3482,-436.8896C539.3482,-387.9214 539.3482,-317.9749 539.3482,-269.0297"/>
</g>
<!-- Jim&#45;&#45;Ricky -->
<g id="edge2" class="edge">
<title>Jim&#45;&#45;Ricky</title>
<path fill="none" stroke="#000000" stroke-width="19" d="M559.9214,-436.882C575.179,-391.7786 595.192,-327.1588 606.3482,-269 616.0031,-218.6675 620.7803,-160.581 623.1273,-118.2745"/>
</g>
<!-- Jason K -->
<g id="node3" class="node">
<title>Jason K</title>
<polygon fill="none" stroke="#000000" points="212.8482,-691 109.8482,-691 109.8482,-588 212.8482,-588 212.8482,-691"/>
<text text-anchor="middle" x="161.3482" y="-635.3" font-family="Times,serif" font-size="14.00" fill="#000000">Jason K</text>
</g>
<!-- Jason K&#45;&#45;Joe -->
<g id="edge18" class="edge">
<title>Jason K&#45;&#45;Joe</title>
<path fill="none" stroke="#000000" stroke-width="3" d="M213.2442,-591.0294C225.5362,-578.7124 238.2804,-565.2127 249.3482,-552 290.1144,-503.3334 330.8015,-442.8429 357.3197,-401.409"/>
</g>
<!-- Jason K&#45;&#45;Kevin K -->
<g id="edge26" class="edge">
<title>Jason K&#45;&#45;Kevin K</title>
<path fill="none" stroke="#000000" stroke-width="3" d="M213.1763,-612.0318C241.1024,-596.1547 275.4503,-574.8352 303.3482,-552 374.4012,-493.841 393.5575,-477.4939 444.3482,-401 470.2087,-362.0524 466.4116,-346.8012 487.3482,-305 493.2124,-293.2917 499.7904,-280.9411 506.2443,-269.1899"/>
</g>
<!-- Jason T -->
<g id="node5" class="node">
<title>Jason T</title>
<polygon fill="none" stroke="#000000" points="206.8482,-542 111.8482,-542 111.8482,-447 206.8482,-447 206.8482,-542"/>
<text text-anchor="middle" x="159.3482" y="-490.3" font-family="Times,serif" font-size="14.00" fill="#000000">Jason T</text>
</g>
<!-- Jason K&#45;&#45;Jason T -->
<g id="edge7" class="edge">
<title>Jason K&#45;&#45;Jason T</title>
<path fill="none" stroke="#000000" stroke-width="20" d="M160.6374,-587.9702C160.4331,-573.1552 160.2111,-557.0621 160.0098,-542.4714"/>
</g>
<!-- Jason K&#45;&#45;Steven -->
<g id="edge8" class="edge">
<title>Jason K&#45;&#45;Steven</title>
<path fill="none" stroke="#000000" stroke-width="5" d="M198.8975,-587.6856C205.6476,-576.3727 211.9308,-564.1401 216.3482,-552 254.2392,-447.8666 215.2312,-410.1014 250.3482,-305 278.3107,-221.311 334.9492,-133.3413 365.9249,-88.7321"/>
</g>
<!-- Jon -->
<g id="node11" class="node">
<title>Jon</title>
<polygon fill="none" stroke="#000000" points="126.8482,-375.5 81.8482,-375.5 81.8482,-330.5 126.8482,-330.5 126.8482,-375.5"/>
<text text-anchor="middle" x="104.3482" y="-348.8" font-family="Times,serif" font-size="14.00" fill="#000000">Jon</text>
</g>
<!-- Jason K&#45;&#45;Jon -->
<g id="edge24" class="edge">
<title>Jason K&#45;&#45;Jon</title>
<path fill="none" stroke="#000000" stroke-width="2" d="M120.1067,-587.8689C113.2055,-576.6374 107.0816,-564.3896 103.3482,-552 84.8075,-490.4715 93.7367,-413.3009 100.006,-375.6986"/>
</g>
<!-- Kevin K&#45;&#45;Steven -->
<g id="edge15" class="edge">
<title>Kevin K&#45;&#45;Steven</title>
<path fill="none" stroke="#000000" d="M481.8835,-153.8463C459.6891,-131.5789 435.2486,-107.058 416.7792,-88.5278"/>
</g>
<!-- Kevin K&#45;&#45;Ricky -->
<g id="edge1" class="edge">
<title>Kevin K&#45;&#45;Ricky</title>
<path fill="none" stroke="#000000" stroke-width="18" d="M571.8611,-153.8463C578.4727,-142.1221 585.4367,-129.7733 592.0743,-118.0031"/>
</g>
<!-- Jason T&#45;&#45;Joe -->
<g id="edge19" class="edge">
<title>Jason T&#45;&#45;Joe</title>
<path fill="none" stroke="#000000" stroke-width="2" d="M206.9174,-471.7174C242.081,-454.1161 290.5576,-428.2299 330.3482,-401 333.2308,-399.0273 336.1395,-396.9368 339.0366,-394.7752"/>
</g>
<!-- Jason T&#45;&#45;Steven -->
<g id="edge13" class="edge">
<title>Jason T&#45;&#45;Steven</title>
<path fill="none" stroke="#000000" d="M155.242,-446.7758C151.6637,-376.1592 154.7294,-242.6538 217.3482,-154 251.5806,-105.5347 318.7728,-78.8723 357.6455,-66.8964"/>
</g>
<!-- Kevin L -->
<g id="node10" class="node">
<title>Kevin L</title>
<polygon fill="none" stroke="#000000" points="321.6144,-365.5 259.082,-365.5 259.082,-340.5 321.6144,-340.5 321.6144,-365.5"/>
<text text-anchor="middle" x="290.3482" y="-348.8" font-family="Times,serif" font-size="14.00" fill="#000000">Kevin L</text>
</g>
<!-- Jason T&#45;&#45;Kevin L -->
<g id="edge22" class="edge">
<title>Jason T&#45;&#45;Kevin L</title>
<path fill="none" stroke="#000000" d="M203.3337,-446.9889C229.9438,-418.246 261.8833,-383.7464 278.6895,-365.5931"/>
</g>
<!-- Jason T&#45;&#45;Jon -->
<g id="edge16" class="edge">
<title>Jason T&#45;&#45;Jon</title>
<path fill="none" stroke="#000000" stroke-width="3" d="M140.881,-446.9889C131.5188,-422.9026 120.5854,-394.7739 113.1363,-375.6094"/>
</g>
<!-- Clayton -->
<g id="node7" class="node">
<title>Clayton</title>
<polygon fill="none" stroke="#000000" points="431.3482,-815 343.3482,-815 343.3482,-727 431.3482,-727 431.3482,-815"/>
<text text-anchor="middle" x="387.3482" y="-766.8" font-family="Times,serif" font-size="14.00" fill="#000000">Clayton</text>
</g>
<!-- Clayton&#45;&#45;Joe -->
<g id="edge12" class="edge">
<title>Clayton&#45;&#45;Joe</title>
<path fill="none" stroke="#000000" stroke-width="14" d="M387.3482,-726.6624C387.3482,-647.5552 387.3482,-482.7363 387.3482,-401.0387"/>
</g>
<!-- Clayton&#45;&#45;Jim -->
<g id="edge11" class="edge">
<title>Clayton&#45;&#45;Jim</title>
<path fill="none" stroke="#000000" stroke-width="4" d="M431.3883,-733.7272C444.2706,-721.1632 457.5168,-706.3956 467.3482,-691 494.8222,-647.9768 513.8265,-592.99 525.3824,-552.1307"/>
</g>
<!-- Clayton&#45;&#45;Jason K -->
<g id="edge21" class="edge">
<title>Clayton&#45;&#45;Jason K</title>
<path fill="none" stroke="#000000" stroke-width="5" d="M343.2366,-745.3333C305.8555,-723.5828 252.2104,-692.3689 212.8641,-669.475"/>
</g>
<!-- Clayton&#45;&#45;Kevin K -->
<g id="edge27" class="edge">
<title>Clayton&#45;&#45;Kevin K</title>
<path fill="none" stroke="#000000" d="M398.2289,-726.8437C414.1199,-662.8039 444.8884,-540.4884 473.3482,-437 489.086,-379.7726 508.2544,-314.7529 521.8701,-269.2848"/>
</g>
<!-- Clayton&#45;&#45;Jason T -->
<g id="edge20" class="edge">
<title>Clayton&#45;&#45;Jason T</title>
<path fill="none" stroke="#000000" stroke-width="5" d="M343.1506,-765.1531C270.405,-754.5233 130.563,-729.5083 101.3482,-691 68.1328,-647.2187 96.1349,-584.7114 123.561,-542.0274"/>
</g>
<!-- Clayton&#45;&#45;Steven -->
<g id="edge23" class="edge">
<title>Clayton&#45;&#45;Steven</title>
<path fill="none" stroke="#000000" stroke-width="2" d="M343.0611,-766.7001C259.5605,-757.6688 83.5247,-733.9322 42.3482,-691 -19.166,-626.8631 5.3482,-583.3681 5.3482,-494.5 5.3482,-494.5 5.3482,-494.5 5.3482,-353 5.3482,-175.3743 267.9386,-90.1897 357.6911,-66.2617"/>
</g>
<!-- Dan -->
<g id="node8" class="node">
<title>Dan</title>
<polygon fill="none" stroke="#000000" points="694.8482,-671 631.8482,-671 631.8482,-608 694.8482,-608 694.8482,-671"/>
<text text-anchor="middle" x="663.3482" y="-635.3" font-family="Times,serif" font-size="14.00" fill="#000000">Dan</text>
</g>
<!-- Clayton&#45;&#45;Dan -->
<g id="edge25" class="edge">
<title>Clayton&#45;&#45;Dan</title>
<path fill="none" stroke="#000000" d="M431.3864,-750.018C487.2408,-723.4062 582.2041,-678.161 631.5122,-654.6682"/>
</g>
<!-- Clayton&#45;&#45;Kevin L -->
<g id="edge9" class="edge">
<title>Clayton&#45;&#45;Kevin L</title>
<path fill="none" stroke="#000000" stroke-width="2" d="M377.0593,-726.6624C355.362,-633.1626 305.8786,-419.9251 293.2995,-365.718"/>
</g>
<!-- Clayton&#45;&#45;Jon -->
<g id="edge28" class="edge">
<title>Clayton&#45;&#45;Jon</title>
<path fill="none" stroke="#000000" d="M343.1758,-766.0226C266.345,-756.3568 113.23,-732.2885 81.3482,-691 7.2976,-595.101 67.3152,-434.677 93.5843,-375.6697"/>
</g>
<!-- Dan&#45;&#45;Jim -->
<g id="edge5" class="edge">
<title>Dan&#45;&#45;Jim</title>
<path fill="none" stroke="#000000" stroke-width="4" d="M636.1358,-607.6791C622.2339,-591.4229 604.8819,-571.1322 588.7244,-552.2383"/>
</g>
<!-- Dan&#45;&#45;Kevin K -->
<g id="edge29" class="edge">
<title>Dan&#45;&#45;Kevin K</title>
<path fill="none" stroke="#000000" stroke-width="3" d="M654.6031,-607.8918C643.5348,-568.0127 623.8048,-497.3444 606.3482,-437 589.8351,-379.9171 570.4495,-314.8776 556.791,-269.3656"/>
</g>
<!-- Dan&#45;&#45;Ricky -->
<g id="edge3" class="edge">
<title>Dan&#45;&#45;Ricky</title>
<path fill="none" stroke="#000000" stroke-width="10" d="M661.2781,-607.8776C655.1759,-514.6586 637.1885,-239.876 629.2215,-118.1699"/>
</g>
</g>
</svg>
